<svg id="path4" xmlns="http://www.w3.org/2000/svg" width="22" height="24" viewBox="0 0 22 24">
  <path id="path4-2" data-name="path4" d="M21.539,18.7a12.785,12.785,0,0,1-1.4,2.32,12.091,12.091,0,0,1-1.809,2.009A3.664,3.664,0,0,1,16,23.973a6.258,6.258,0,0,1-2.147-.471,6.627,6.627,0,0,0-2.312-.47,6.855,6.855,0,0,0-2.377.47A6.856,6.856,0,0,1,7.11,24a3.45,3.45,0,0,1-2.377-.966,12.71,12.71,0,0,1-1.892-2.08,13.976,13.976,0,0,1-2-3.652A12.4,12.4,0,0,1,0,12.949,7.449,7.449,0,0,1,1.136,8.791,6.411,6.411,0,0,1,3.515,6.58a6.828,6.828,0,0,1,3.216-.834,8.14,8.14,0,0,1,2.487.532,8.55,8.55,0,0,0,1.973.533,12.6,12.6,0,0,0,2.188-.628A7.805,7.805,0,0,1,16.352,5.7,6.485,6.485,0,0,1,21.3,8.091a5,5,0,0,0-2.918,4.593,4.888,4.888,0,0,0,1.81,3.818A6.022,6.022,0,0,0,22,17.591q-.218.58-.461,1.113ZM16.5.481a4.894,4.894,0,0,1-1.428,3.358,5.033,5.033,0,0,1-4.042,1.833A3.438,3.438,0,0,1,11,5.217a5.042,5.042,0,0,1,1.515-3.394A5.816,5.816,0,0,1,14.36.55,5.881,5.881,0,0,1,16.472,0a4.012,4.012,0,0,1,.027.48Z" transform="translate(0 -0.001)" fill="#fff"/>
</svg>
